<svg width="418" height="334" viewBox="0 0 418 334" fill="none" xmlns="http://www.w3.org/2000/svg">
<path d="M375.667 125.333H139.834L191.917 70.7499C199.542 62.7382 203.672 52.0256 203.398 40.9688C203.125 29.9119 198.47 19.4166 190.459 11.7916C182.447 4.16664 171.734 0.0366395 160.677 0.31013C149.621 0.58362 139.125 5.23823 131.5 13.25L12.3337 138.25C10.9427 139.954 9.68874 141.765 8.58366 143.667C6.66017 146.056 5.11442 148.726 4.00032 151.583C2.5356 155.31 1.69109 159.251 1.50032 163.25L0.666992 167C0.732825 172.445 1.86528 177.824 4.00032 182.833C6.03129 187.8 9.00237 192.327 12.7503 196.167L137.75 321.167C141.624 325.072 146.232 328.172 151.31 330.287C156.387 332.402 161.833 333.492 167.334 333.492C172.834 333.492 178.28 332.402 183.358 330.287C188.435 328.172 193.044 325.072 196.917 321.167C200.822 317.293 203.922 312.685 206.037 307.607C208.153 302.53 209.242 297.084 209.242 291.583C209.242 286.083 208.153 280.637 206.037 275.559C203.922 270.482 200.822 265.873 196.917 262L142.75 208.667H375.667C386.718 208.667 397.316 204.277 405.13 196.463C412.944 188.649 417.334 178.051 417.334 167C417.334 155.949 412.944 145.351 405.13 137.537C397.316 129.723 386.718 125.333 375.667 125.333Z" fill="#A34BCB"/>
</svg>
