<svg width="24" height="24" viewBox="0 0 24 24" fill="none" xmlns="http://www.w3.org/2000/svg">
<path d="M18.77 13.36C18.6861 13.2588 18.583 13.1751 18.4666 13.1137C18.3503 13.0524 18.223 13.0146 18.092 13.0025C17.961 12.9904 17.8289 13.0043 17.7033 13.0433C17.5777 13.0824 17.4611 13.1458 17.36 13.23L13 16.86L13 5.00002C13 4.73481 12.8947 4.48045 12.7071 4.29292C12.5196 4.10538 12.2652 4.00002 12 4.00002C11.7348 4.00002 11.4804 4.10538 11.2929 4.29292C11.1054 4.48045 11 4.73481 11 5.00002L11 16.86L6.64001 13.23C6.53889 13.146 6.42221 13.0827 6.29663 13.0437C6.17104 13.0048 6.03901 12.9909 5.90808 13.003C5.77715 13.0151 5.64988 13.0528 5.53354 13.1141C5.41719 13.1753 5.31405 13.2589 5.23001 13.36C5.14596 13.4611 5.08266 13.5778 5.0437 13.7034C5.00475 13.829 4.99092 13.961 5.00299 14.0919C5.01506 14.2229 5.0528 14.3501 5.11406 14.4665C5.17532 14.5828 5.25889 14.686 5.36001 14.77L11.36 19.77L11.51 19.86L11.64 19.93C11.8717 20.0194 12.1283 20.0194 12.36 19.93L12.49 19.86L12.64 19.77L18.64 14.77C18.7413 14.6861 18.825 14.583 18.8863 14.4666C18.9477 14.3503 18.9855 14.223 18.9975 14.092C19.0096 13.961 18.9957 13.8289 18.9567 13.7033C18.9177 13.5777 18.8542 13.4611 18.77 13.36V13.36Z" fill="#D30000"/>
</svg>
