<svg width="33" height="16" viewBox="0 0 33 16" fill="none" xmlns="http://www.w3.org/2000/svg">
<path d="M31.349 2.3106e-06L1.64816 -2.85927e-07C1.34746 0.000610196 1.0527 0.05432 0.795623 0.155347C0.538545 0.256373 0.328881 0.40089 0.189198 0.573345C0.0495154 0.745799 -0.0148969 0.939659 0.00289571 1.13406C0.0206883 1.32845 0.120011 1.51603 0.290173 1.67659L15.1406 15.568C15.7561 16.144 17.2378 16.144 17.8549 15.568L32.7053 1.67659C32.8772 1.51637 32.978 1.3287 32.9968 1.13398C33.0156 0.939255 32.9516 0.744928 32.8118 0.572108C32.6719 0.399289 32.4617 0.254586 32.2038 0.153723C31.9459 0.0528602 31.6503 -0.000304967 31.349 2.3106e-06Z" fill="#1CAADF"/>
</svg>
