<svg width="33" height="16" viewBox="0 0 33 16" fill="none" xmlns="http://www.w3.org/2000/svg">
<path d="M1.65099 16H31.3518C31.6525 15.9994 31.9473 15.9457 32.2044 15.8447C32.4615 15.7436 32.6711 15.5991 32.8108 15.4267C32.9505 15.2542 33.0149 15.0603 32.9971 14.8659C32.9793 14.6715 32.88 14.484 32.7098 14.3234L17.8594 0.43197C17.2439 -0.14399 15.7622 -0.14399 15.1451 0.43197L0.294655 14.3234C0.122761 14.4836 0.0219586 14.6713 0.00319932 14.866C-0.01556 15.0607 0.0484415 15.2551 0.18825 15.4279C0.328059 15.6007 0.538327 15.7454 0.79621 15.8463C1.05409 15.9471 1.34973 16.0003 1.65099 16Z" fill="#A345CC"/>
</svg>
